<?xml version="1.0" encoding="utf-8"?>
<!DOCTYPE svg PUBLIC "-//W3C//DTD SVG 1.1//EN" "http://www.w3.org/Graphics/SVG/1.1/DTD/svg11.dtd">
<svg version="1.1" xmlns="http://www.w3.org/2000/svg" xmlns:xlink="http://www.w3.org/1999/xlink" x="0px" y="0px" viewBox="0 0 256 256" enable-background="new 0 0 256 256" xml:space="preserve">
    <metadata> Svg Vector Icons : http://www.onlinewebfonts.com/icon </metadata>
    <g>
        <g>
            <path fill="#000000" d="M94.9,136.3v9.1c3.4-0.7,7-1.3,10.8-2c4-0.7,8.2-1.5,12.6-2.4v-10.6c-4.4,1.1-8.6,2.2-12.6,3.2C101.9,134.6,98.3,135.5,94.9,136.3z"/>
            <path fill="#000000" d="M94.9,162.7v9.1h23.4v-10.6c-4.4,0.3-8.6,0.6-12.6,0.8C101.9,162.2,98.3,162.4,94.9,162.7z"/>
            <path fill="#000000" d="M94.9,149.4v9.1c3.4-0.3,7-0.7,10.8-1c4-0.4,8.2-0.8,12.6-1.2v-10.6c-4.4,0.7-8.6,1.4-12.6,2C101.9,148.3,98.3,148.9,94.9,149.4z"/>
            <path fill="#000000" d="M94.9,123.4v9.1c3.4-1,7-2,10.8-3c4-1.1,8.2-2.3,12.6-3.5v-10.6c-4.4,1.5-8.6,3-12.6,4.4C101.9,120.9,98.3,122.2,94.9,123.4z"/>
            <path fill="#000000" d="M128,10C62.8,10,10,62.8,10,128c0,65.2,52.8,118,118,118c65.2,0,118-52.8,118-118C246,62.8,193.2,10,128,10z M128,240.5c-62.1,0-112.5-50.4-112.5-112.5C15.5,65.9,65.9,15.5,128,15.5c62.1,0,112.5,50.4,112.5,112.5C240.5,190.1,190.1,240.5,128,240.5z"/>
            <path fill="#000000" d="M165.4,80.6L165.4,80.6l-11.9-7.9l-4.3,2l-37.7,17.6l-1.7,0.8v14L87.3,115l-2,0.7v50.7h-1.9v6h8V120l31.6-11v62.9h22.6v-6h-4.7v-58l-11.8-7.3l-0.4,0.1l-0.1,0l-3.5,1.2l-9.1,3.2V97l31.6-14.8v89.9H170v-6h-4.6V80.6z"/>
        </g>
    </g>
</svg>